<svg width="80" height="88" viewBox="0 0 80 88" fill="none" xmlns="http://www.w3.org/2000/svg">
<g filter="url(#filter0_d_97_8)">
<path d="M40 80C35.0105 80 30.3368 79.0698 25.9789 77.2093C21.6211 75.3488 17.8158 72.8217 14.5632 69.6279C11.3105 66.4341 8.73684 62.6977 6.84211 58.4186C4.94737 54.1395 4 49.5504 4 44.6512C4 39.7519 4.94737 35.1628 6.84211 30.8837C8.73684 26.6047 11.3105 22.8682 14.5632 19.6744C17.8158 16.4806 21.6211 13.9535 25.9789 12.093C30.3368 10.2326 35.0105 9.30233 40 9.30233V0L55.1579 14.8837L40 29.7674V20.4651C33.1789 20.4651 27.3684 22.8217 22.5684 27.5349C17.7684 32.2481 15.3684 37.9535 15.3684 44.6512C15.3684 48.7442 16.3316 52.5426 18.2579 56.0465C20.1842 59.5504 22.7579 62.3876 25.9789 64.5581C26.9895 62.8217 28.4895 61.3488 30.4789 60.1395C32.4684 58.9302 34.7579 58.1705 37.3474 57.8605C37.1579 56.5581 36.9053 55.2558 36.5895 53.9535C36.2737 52.6512 35.8947 51.4419 35.4526 50.3256C34.7579 50.8837 34 51.3178 33.1789 51.6279C32.3579 51.938 31.4737 52.093 30.5263 52.093C28.4421 52.093 26.6579 51.3643 25.1737 49.907C23.6895 48.4496 22.9474 46.6977 22.9474 44.6512V40.9302C22.9474 39.876 22.7737 38.8837 22.4263 37.9535C22.0789 37.0233 21.6211 36.155 21.0526 35.3488C24.2105 35.2868 27.0211 35.5659 29.4842 36.186C31.6316 36.7442 33.5895 37.6589 35.3579 38.9302C37.1263 40.2016 38.0421 42.1085 38.1053 44.6512C38.1053 45.2093 38.0579 45.7209 37.9632 46.186C37.8684 46.6512 37.6947 47.1318 37.4421 47.6279C36.6211 47.0078 35.8 46.4496 34.9789 45.9535C34.1579 45.4574 33.3053 45.0233 32.4211 44.6512C33.4947 45.4574 34.7263 46.6977 36.1158 48.3721C37.5053 50.0465 38.8 52.031 40 54.3256C41.2632 51.2868 42.8421 48.2946 44.7368 45.3488C46.6316 42.4031 48.8421 39.6899 51.3684 37.2093C49.9158 38.2015 48.5263 39.2558 47.2 40.3721C45.8737 41.4884 44.5789 42.6667 43.3158 43.907C42.8737 43.2248 42.5263 42.4651 42.2737 41.6279C42.0211 40.7907 41.8947 39.938 41.8947 39.0698C41.8947 36.4651 42.8105 34.2636 44.6421 32.4651C46.4737 30.6667 48.7158 29.7674 51.3684 29.7674H55.1579C56.6105 29.7674 57.8105 29.5814 58.7579 29.2093C59.7053 28.8372 60.4947 28.4031 61.1263 27.907C61.8211 27.3488 62.3579 26.7287 62.7368 26.0465C62.9895 30.2015 62.7684 33.9225 62.0737 37.2093C61.5053 40 60.4316 42.5581 58.8526 44.8837C57.2737 47.2093 54.7789 48.3721 51.3684 48.3721C50.4211 48.3721 49.5211 48.2481 48.6684 48C47.8158 47.7519 47.0421 47.4109 46.3474 46.9767C45.9053 48.155 45.4 49.7209 44.8316 51.6744C44.2632 53.6279 43.8211 55.7209 43.5053 57.9535C45.9053 58.3876 48.0211 59.1938 49.8526 60.3721C51.6842 61.5504 53.0737 62.9457 54.0211 64.5581C57.2421 62.3876 59.8158 59.5659 61.7421 56.093C63.6684 52.6202 64.6316 48.8062 64.6316 44.6512H76C76 49.5504 75.0526 54.1395 73.1579 58.4186C71.2632 62.6977 68.6895 66.4341 65.4368 69.6279C62.1842 72.8217 58.3789 75.3488 54.0211 77.2093C49.6632 79.0698 44.9895 80 40 80Z" fill="#616D38"/>
</g>
<defs>
</defs>
</svg>
