<svg width="90" height="90" viewBox="0 0 90 90" fill="none" xmlns="http://www.w3.org/2000/svg">
<g filter="url(#filter0_d_97_10)">
<path d="M45 81C38.2121 81 31.6667 79 25.3636 75C19.0606 71 14.0909 66.4242 10.4545 61.2727V73.7273H5V51.9091H26.8182V57.3636H14.3636C17.4545 62.0303 21.8636 66.2273 27.5909 69.9545C33.3182 73.6818 39.1212 75.5455 45 75.5455C49.7273 75.5455 54.197 74.6364 58.4091 72.8182C62.6212 71 66.2879 68.5303 69.4091 65.4091C72.5303 62.2879 75 58.6212 76.8182 54.4091C78.6364 50.197 79.5455 45.7273 79.5455 41H85C85 46.5152 83.9545 51.697 81.8636 56.5455C79.7727 61.3939 76.9091 65.6364 73.2727 69.2727C69.6364 72.9091 65.3939 75.7727 60.5455 77.8636C55.697 79.9545 50.5152 81 45 81ZM42.3636 67.0909V62.1818C39.6364 61.4545 37.3485 60.2879 35.5 58.6818C33.6515 57.0758 32.0909 54.8788 30.8182 52.0909L35.4545 50.5455C36.1818 52.8485 37.4697 54.6667 39.3182 56C41.1667 57.3333 43.2727 58 45.6364 58C48.0606 58 50.0758 57.4091 51.6818 56.2273C53.2879 55.0455 54.0909 53.4849 54.0909 51.5455C54.0909 49.5455 53.3333 47.8636 51.8182 46.5C50.303 45.1364 47.5152 43.6061 43.4545 41.9091C39.8182 40.3939 37.0909 38.7576 35.2727 37C33.4545 35.2424 32.5455 32.8788 32.5455 29.9091C32.5455 27.2424 33.4545 24.9697 35.2727 23.0909C37.0909 21.2121 39.5152 20.0606 42.5455 19.6364V15H47.5455V19.6364C49.8485 19.8788 51.8485 20.6061 53.5455 21.8182C55.2424 23.0303 56.6061 24.697 57.6364 26.8182L53.2727 28.9091C52.3636 27.2121 51.2424 25.9394 49.9091 25.0909C48.5758 24.2424 47 23.8182 45.1818 23.8182C42.8182 23.8182 40.9545 24.3636 39.5909 25.4545C38.2273 26.5455 37.5455 28.0303 37.5455 29.9091C37.5455 31.8485 38.3333 33.3939 39.9091 34.5455C41.4848 35.697 44.0303 37 47.5455 38.4545C51.7273 40.2121 54.697 42.0606 56.4545 44C58.2121 45.9394 59.0909 48.4545 59.0909 51.5455C59.0909 53.0606 58.8182 54.4545 58.2727 55.7273C57.7273 57 56.9545 58.0909 55.9545 59C54.9545 59.9091 53.7273 60.6515 52.2727 61.2273C50.8182 61.803 49.1818 62.1818 47.3636 62.3636V67.0909H42.3636ZM5 41C5 35.4848 6.04545 30.303 8.13636 25.4545C10.2273 20.6061 13.0909 16.3636 16.7273 12.7273C20.3636 9.09091 24.6061 6.22727 29.4545 4.13636C34.303 2.04545 39.4848 1 45 1C51.7879 1 58.3333 3 64.6364 7C70.9394 11 75.9091 15.5758 79.5455 20.7273V8.27273H85V30.0909H63.1818V24.6364H75.6364C72.5455 19.9697 68.1515 15.7727 62.4545 12.0455C56.7576 8.31818 50.9394 6.45455 45 6.45455C40.2727 6.45455 35.803 7.36364 31.5909 9.18182C27.3788 11 23.7121 13.4697 20.5909 16.5909C17.4697 19.7121 15 23.3788 13.1818 27.5909C11.3636 31.803 10.4545 36.2727 10.4545 41H5Z" fill="white"/>
<path d="M10.9545 73.7273V62.8003C14.5378 67.5096 19.2551 71.7156 25.0957 75.4222C31.4706 79.4678 38.1079 81.5 45 81.5C50.5802 81.5 55.8297 80.4418 60.7435 78.3228C65.6484 76.2075 69.944 73.3086 73.6263 69.6263C77.3086 65.944 80.2075 61.6484 82.3228 56.7435C84.4418 51.8297 85.5 46.5802 85.5 41V40.5H85H79.5455H79.0455V41C79.0455 45.6612 78.1495 50.0633 76.3591 54.2109C74.565 58.3674 72.1303 61.9808 69.0555 65.0555C65.9808 68.1303 62.3674 70.565 58.2109 72.3591C54.0633 74.1495 49.6612 75.0455 45 75.0455C39.233 75.0455 33.5232 73.2187 27.8636 69.5355C22.5028 66.0467 18.3232 62.1543 15.3099 57.8636H26.8182H27.3182V57.3636V51.9091V51.4091H26.8182H5H4.5V51.9091V73.7273V74.2273H5H10.4545H10.9545V73.7273ZM41.8636 67.0909V67.5909H42.3636H47.3636H47.8636V67.0909V62.8118C49.543 62.6109 51.0752 62.239 52.4568 61.6922C53.9587 61.0977 55.2398 60.3255 56.2909 59.37C57.3452 58.4115 58.1593 57.2611 58.7323 55.9242C59.3069 54.5836 59.5909 53.1219 59.5909 51.5455C59.5909 48.3542 58.6807 45.7118 56.825 43.6642C54.9948 41.6447 51.946 39.7617 47.7392 37.9936L47.7366 37.9925C44.2305 36.5417 41.7301 35.2569 40.2041 34.1418C38.7562 33.0837 38.0455 31.6877 38.0455 29.9091C38.0455 28.169 38.6682 26.833 39.9033 25.845C41.1514 24.8465 42.8918 24.3182 45.1818 24.3182C46.9195 24.3182 48.3991 24.7226 49.6407 25.5127C50.8873 26.3061 51.9546 27.5075 52.832 29.1452L53.0577 29.5666L53.4888 29.36L57.8524 27.2691L58.3057 27.0519L58.0861 26.5997C57.0242 24.4134 55.6095 22.678 53.8361 21.4113C52.1735 20.2237 50.2393 19.4869 48.0455 19.1926V15V14.5H47.5455H42.5455H42.0455V15V19.2069C39.1213 19.6905 36.7333 20.8627 34.9134 22.7432C33.003 24.7173 32.0455 27.1155 32.0455 29.9091C32.0455 32.9887 32.9926 35.4913 34.9252 37.3595C36.8062 39.1778 39.5968 40.8434 43.2622 42.3706C47.3166 44.065 50.036 45.5687 51.4837 46.8716C52.8958 48.1425 53.5909 49.6903 53.5909 51.5455C53.5909 53.3207 52.8677 54.7338 51.3855 55.8246C49.8825 56.9305 47.9775 57.5 45.6364 57.5C43.3736 57.5 41.3707 56.864 39.6107 55.5945C37.8548 54.328 36.6283 52.6018 35.9313 50.3949L35.7784 49.9105L35.2964 50.0711L30.6601 51.6166L30.1323 51.7925L30.3633 52.2986C31.6585 55.1356 33.2579 57.3961 35.1721 59.0593C37.0007 60.6481 39.2354 61.8131 41.8636 62.5625V67.0909ZM4.5 41V41.5H5H10.4545H10.9545V41C10.9545 36.3388 11.8505 31.9367 13.6409 27.7891C15.435 23.6326 17.8697 20.0193 20.9445 16.9445C24.0193 13.8697 27.6326 11.435 31.7891 9.64088C35.9367 7.85053 40.3388 6.95455 45 6.95455C50.8285 6.95455 56.553 8.78183 62.1808 12.4639C67.5132 15.9526 71.6781 19.8451 74.6902 24.1364H63.1818H62.6818V24.6364V30.0909V30.5909H63.1818H85H85.5V30.0909V8.27273V7.77273H85H79.5455H79.0455V8.27273V19.1997C75.4622 14.4904 70.7449 10.2844 64.9043 6.57784C58.5294 2.53225 51.8921 0.5 45 0.5C39.4198 0.5 34.1703 1.55817 29.2565 3.67724C24.3516 5.7925 20.056 8.69144 16.3737 12.3737C12.6914 16.056 9.7925 20.3516 7.67724 25.2565C5.55817 30.1703 4.5 35.4198 4.5 41Z" stroke="white"/>
</g>
<defs>
<filter id="filter0_d_97_10" x="0" y="0" width="90" height="90" filterUnits="userSpaceOnUse" color-interpolation-filters="sRGB">
<feFlood flood-opacity="0" result="BackgroundImageFix"/>
<feColorMatrix in="SourceAlpha" type="matrix" values="0 0 0 0 0 0 0 0 0 0 0 0 0 0 0 0 0 0 127 0" result="hardAlpha"/>
<feOffset dy="4"/>
<feGaussianBlur stdDeviation="2"/>
<feComposite in2="hardAlpha" operator="out"/>
<feColorMatrix type="matrix" values="0 0 0 0 0 0 0 0 0 0 0 0 0 0 0 0 0 0 0.25 0"/>
<feBlend mode="normal" in2="BackgroundImageFix" result="effect1_dropShadow_97_10"/>
<feBlend mode="normal" in="SourceGraphic" in2="effect1_dropShadow_97_10" result="shape"/>
</filter>
</defs>
</svg>
