<svg width="82" height="82" viewBox="0 0 82 82" fill="none" xmlns="http://www.w3.org/2000/svg">
<path d="M6.95455 73.7273V62.8003C10.5378 67.5096 15.2551 71.7156 21.0957 75.4222C27.4706 79.4678 34.1079 81.5 41 81.5C46.5802 81.5 51.8297 80.4418 56.7435 78.3228C61.6484 76.2075 65.944 73.3086 69.6263 69.6263C73.3086 65.944 76.2075 61.6484 78.3228 56.7435C80.4418 51.8297 81.5 46.5802 81.5 41V40.5H81H75.5455H75.0455V41C75.0455 45.6612 74.1495 50.0633 72.3591 54.2109C70.565 58.3674 68.1303 61.9808 65.0555 65.0555C61.9808 68.1303 58.3674 70.565 54.2109 72.3591C50.0633 74.1495 45.6612 75.0455 41 75.0455C35.2329 75.0455 29.5232 73.2187 23.8636 69.5355C18.5028 66.0467 14.3232 62.1543 11.3099 57.8636H22.8182H23.3182V57.3636V51.9091V51.4091H22.8182H1H0.5V51.9091V73.7273V74.2273H1H6.45455H6.95455V73.7273ZM37.8636 67.0909V67.5909H38.3636H43.3636H43.8636V67.0909V62.8118C45.543 62.6109 47.0752 62.239 48.4568 61.6922C49.9587 61.0977 51.2398 60.3255 52.2909 59.37C53.3452 58.4115 54.1593 57.2611 54.7323 55.9242C55.3069 54.5836 55.5909 53.1219 55.5909 51.5455C55.5909 48.3542 54.6807 45.7118 52.825 43.6642C50.9948 41.6447 47.946 39.7617 43.7392 37.9936L43.7366 37.9925C40.2305 36.5417 37.7301 35.2569 36.2041 34.1418C34.7562 33.0837 34.0455 31.6877 34.0455 29.9091C34.0455 28.169 34.6682 26.833 35.9033 25.845C37.1514 24.8465 38.8918 24.3182 41.1818 24.3182C42.9195 24.3182 44.3991 24.7226 45.6407 25.5127C46.8873 26.3061 47.9546 27.5075 48.832 29.1452L49.0577 29.5666L49.4888 29.36L53.8524 27.2691L54.3057 27.0519L54.0861 26.5997C53.0242 24.4134 51.6095 22.678 49.8361 21.4113C48.1735 20.2237 46.2393 19.4869 44.0455 19.1926V15V14.5H43.5455H38.5455H38.0455V15V19.2069C35.1213 19.6905 32.7333 20.8627 30.9134 22.7432C29.003 24.7173 28.0455 27.1155 28.0455 29.9091C28.0455 32.9887 28.9926 35.4913 30.9252 37.3595C32.8062 39.1778 35.5968 40.8434 39.2622 42.3706C43.3166 44.065 46.036 45.5687 47.4837 46.8716C48.8958 48.1425 49.5909 49.6903 49.5909 51.5455C49.5909 53.3207 48.8677 54.7338 47.3855 55.8246C45.8825 56.9305 43.9775 57.5 41.6364 57.5C39.3736 57.5 37.3707 56.864 35.6107 55.5945C33.8548 54.328 32.6283 52.6018 31.9313 50.3949L31.7784 49.9105L31.2964 50.0711L26.6601 51.6166L26.1323 51.7925L26.3633 52.2986C27.6585 55.1356 29.2579 57.3961 31.1721 59.0593C33.0007 60.6481 35.2354 61.8131 37.8636 62.5625V67.0909ZM0.5 41V41.5H1H6.45455H6.95455V41C6.95455 36.3388 7.85053 31.9367 9.64088 27.7891C11.435 23.6326 13.8697 20.0193 16.9445 16.9445C20.0193 13.8697 23.6326 11.435 27.7891 9.64088C31.9367 7.85053 36.3388 6.95455 41 6.95455C46.8285 6.95455 52.553 8.78183 58.1808 12.4639C63.5132 15.9526 67.6781 19.8451 70.6902 24.1364H59.1818H58.6818V24.6364V30.0909V30.5909H59.1818H81H81.5V30.0909V8.27273V7.77273H81H75.5455H75.0455V8.27273V19.1997C71.4622 14.4904 66.7449 10.2844 60.9043 6.57784C54.5294 2.53225 47.8921 0.5 41 0.5C35.4198 0.5 30.1703 1.55817 25.2565 3.67724C20.3516 5.7925 16.056 8.69144 12.3737 12.3737C8.69144 16.056 5.7925 20.3516 3.67724 25.2565C1.55817 30.1703 0.5 35.4198 0.5 41Z" fill="#616D38" stroke="#616D38"/>
</svg>
