<svg width="60" height="80" viewBox="0 0 60 80" fill="none" xmlns="http://www.w3.org/2000/svg">
<path d="M30 80C27.7333 80 25.8167 79.233 24.25 77.6989C22.6833 76.1648 21.9 74.288 21.9 72.0685H38.1C38.1 74.288 37.3167 76.1648 35.75 77.6989C34.1833 79.233 32.2667 80 30 80ZM13.8 65.9976V60.1224H46.2V65.9976H13.8ZM14.3 54.1493C9.9 51.3423 6.41667 47.8335 3.85 43.623C1.28333 39.4125 0 34.6634 0 29.3758C0 21.4117 2.96667 14.5247 8.9 8.71481C14.8333 2.90494 21.8667 0 30 0C38.1333 0 45.1667 2.90494 51.1 8.71481C57.0333 14.5247 60 21.4117 60 29.3758C60 34.6634 58.7333 39.4125 56.2 43.623C53.6667 47.8335 50.1667 51.3423 45.7 54.1493H14.3ZM16.5 48.2742H43.6C46.8 46.1852 49.3333 43.4761 51.2 40.1469C53.0667 36.8176 54 33.2273 54 29.3758C54 22.9131 51.65 17.3807 46.95 12.7785C42.25 8.17625 36.6 5.87515 30 5.87515C23.4 5.87515 17.75 8.17625 13.05 12.7785C8.35 17.3807 6 22.9131 6 29.3758C6 33.2273 6.93333 36.8176 8.8 40.1469C10.6667 43.4761 13.2333 46.1852 16.5 48.2742Z" fill="#616D38"/>
</svg>
