<svg width="68" height="88" viewBox="0 0 68 88" fill="none" xmlns="http://www.w3.org/2000/svg">
<g filter="url(#filter0_d_97_18)">
<path d="M34 80C31.7333 80 29.8167 79.233 28.25 77.6989C26.6833 76.1648 25.9 74.288 25.9 72.0685H42.1C42.1 74.288 41.3167 76.1648 39.75 77.6989C38.1833 79.233 36.2667 80 34 80ZM17.8 65.9976V60.1224H50.2V65.9976H17.8ZM18.3 54.1493C13.9 51.3423 10.4167 47.8335 7.85 43.623C5.28333 39.4125 4 34.6634 4 29.3758C4 21.4117 6.96667 14.5247 12.9 8.71481C18.8333 2.90494 25.8667 0 34 0C42.1333 0 49.1667 2.90494 55.1 8.71481C61.0333 14.5247 64 21.4117 64 29.3758C64 34.6634 62.7333 39.4125 60.2 43.623C57.6667 47.8335 54.1667 51.3423 49.7 54.1493H18.3ZM20.5 48.2742H47.6C50.8 46.1852 53.3333 43.4761 55.2 40.1469C57.0667 36.8176 58 33.2273 58 29.3758C58 22.9131 55.65 17.3807 50.95 12.7785C46.25 8.17625 40.6 5.87515 34 5.87515C27.4 5.87515 21.75 8.17625 17.05 12.7785C12.35 17.3807 10 22.9131 10 29.3758C10 33.2273 10.9333 36.8176 12.8 40.1469C14.6667 43.4761 17.2333 46.1852 20.5 48.2742Z" fill="white"/>
</g>
<defs>
<filter id="filter0_d_97_18" x="0" y="0" width="68" height="88" filterUnits="userSpaceOnUse" color-interpolation-filters="sRGB">
<feFlood flood-opacity="0" result="BackgroundImageFix"/>
<feColorMatrix in="SourceAlpha" type="matrix" values="0 0 0 0 0 0 0 0 0 0 0 0 0 0 0 0 0 0 127 0" result="hardAlpha"/>
<feOffset dy="4"/>
<feGaussianBlur stdDeviation="2"/>
<feComposite in2="hardAlpha" operator="out"/>
<feColorMatrix type="matrix" values="0 0 0 0 0 0 0 0 0 0 0 0 0 0 0 0 0 0 0.25 0"/>
<feBlend mode="normal" in2="BackgroundImageFix" result="effect1_dropShadow_97_18"/>
<feBlend mode="normal" in="SourceGraphic" in2="effect1_dropShadow_97_18" result="shape"/>
</filter>
</defs>
</svg>
