<?xml version="1.0" encoding="UTF-8"?>
<svg id="Camada_1" data-name="Camada 1" xmlns="http://www.w3.org/2000/svg" viewBox="0 0 2000 2000">
  <defs>
    <style>
      .cls-1 {
        fill: #fff;
      }
    </style>
  </defs>
  <g>
    <g>
      <path class="cls-1" d="M412.96,839.8l-5.69-2.56-66.14,147.12c-9.3,20.69-.07,45,20.62,54.31l10.11,4.54,64.15-142.7c10.4-23.13.07-50.32-23.06-60.72ZM426.97,891.68l-60.02,133.51c-10-4.5-15.92-14.33-15.92-24.63,0-3.7.76-7.46,2.38-11.05l60.02-133.51c10,4.49,15.92,14.33,15.92,24.63,0,3.7-.76,7.46-2.38,11.05Z"/>
      <path class="cls-1" d="M397.71,1110.61l191.89,69.92,4.96-13.6c10.14-27.83-4.2-58.59-32.02-68.73l-197.84-72.09-2.78,7.65c-11.33,31.11,4.69,65.52,35.8,76.85ZM386.64,1086.26c-9.63-9.38-14.9-24.36-10-37.8l179.54,65.91c4.83,1.76,9.04,4.47,12.5,7.83,9.63,9.38,13.44,23.87,8.54,37.32l-178.08-65.42c-4.83-1.76-9.04-4.47-12.5-7.84Z"/>
    </g>
    <g>
      <path class="cls-1" d="M644.12,1177.97l5.69,2.56,66.14-147.12c9.3-20.69.07-45-20.62-54.31l-10.11-4.54-64.15,142.7c-10.4,23.13-.07,50.32,23.06,60.72ZM630.11,1126.09l60.02-133.51c10,4.5,15.92,14.33,15.92,24.63,0,3.7-.76,7.46-2.38,11.05l-60.02,133.51c-10-4.49-15.92-14.33-15.92-24.63,0-3.7.76-7.46,2.38-11.05Z"/>
      <path class="cls-1" d="M659.37,907.16l-191.89-69.92-4.96,13.6c-10.14,27.83,4.2,58.59,32.02,68.73l197.84,72.09,2.78-7.65c11.33-31.11-4.69-65.52-35.8-76.85ZM670.44,931.51c9.63,9.38,14.9,24.36,10,37.8l-179.54-65.91c-4.83-1.76-9.04-4.47-12.5-7.83-9.63-9.38-13.44-23.87-8.54-37.32l178.08,65.42c4.83,1.76,9.04,4.47,12.5,7.84Z"/>
    </g>
  </g>
  <g>
    <g>
      <path class="cls-1" d="M937.82,1149.47v-23.79h17.02v3h-13.49v6.21h13.49v2.82h-13.49v8.76h13.49v3h-17.02Z"/>
      <path class="cls-1" d="M992.65,1150.04h-.42l-16.17-16.7v16.13h-3.53v-24.36h.49l16.13,16.77v-16.2h3.49v24.36Z"/>
      <path class="cls-1" d="M1010.91,1149.47v-23.79h17.02v3h-13.49v6.21h13.49v2.82h-13.49v8.76h13.49v3h-17.02Z"/>
      <path class="cls-1" d="M1060.48,1149.47l-6.88-10.1h-4.45v10.1h-3.53v-23.79h11.3c4.66,0,7.87,2.51,7.87,6.67,0,3.92-2.68,6.04-5.93,6.57l-1.48.18,7.41,10.38h-4.31ZM1056.7,1128.68h-7.55v7.84h7.24c2.65,0,4.77-1.16,4.77-4.09,0-2.26-1.66-3.74-4.45-3.74Z"/>
      <path class="cls-1" d="M1092.61,1150.11c-8.05,0-12.6-5.4-12.6-12.74s4.94-12.32,13.24-12.32c2.01,0,4.2.21,6.42.74l-.32,3.18c-1.84-.46-3.78-.78-5.65-.78-6.39,0-9.99,3.21-9.99,9.18,0,5.61,3.46,9.67,8.97,9.67,1.38,0,2.68-.14,3.92-.56v-8.61h3.53v11.01c-2.12.78-4.91,1.24-7.52,1.24Z"/>
      <path class="cls-1" d="M1117.79,1149.47v-23.79h3.53v23.79h-3.53Z"/>
      <path class="cls-1" d="M1156.2,1149.47l-2.19-5.58h-11.01l-2.15,5.58h-3.78l9.85-24.18h3.25l9.85,24.18h-3.81ZM1148.5,1129.7l-4.45,11.4h8.9l-4.45-11.4Z"/>
      <path class="cls-1" d="M1201.61,1138v11.47h-3.53v-23.79h16.94v3h-13.41v6.53h13.41v2.79h-13.41Z"/>
      <path class="cls-1" d="M1242.07,1150.11c-7.59,0-11.9-6-11.9-12.53s4.24-12.53,11.86-12.53,11.86,5.9,11.86,12.53-4.27,12.53-11.83,12.53ZM1242.03,1127.97c-5.61,0-8.15,4.73-8.15,9.46s2.61,9.71,8.19,9.71,8.15-4.84,8.15-9.71-2.61-9.46-8.19-9.46Z"/>
      <path class="cls-1" d="M1278.86,1128.68v20.79h-3.53v-20.79h-8.61v-3h20.72v3h-8.58Z"/>
      <path class="cls-1" d="M1312.12,1150.11c-7.59,0-11.9-6-11.9-12.53s4.24-12.53,11.86-12.53,11.86,5.9,11.86,12.53-4.27,12.53-11.83,12.53ZM1312.09,1127.97c-5.61,0-8.15,4.73-8.15,9.46s2.61,9.71,8.19,9.71,8.15-4.84,8.15-9.71-2.61-9.46-8.19-9.46Z"/>
      <path class="cls-1" d="M1349.97,1149.86h-3.25l-9.88-24.18h3.85l7.7,19.45,7.66-19.45h3.78l-9.85,24.18Z"/>
      <path class="cls-1" d="M1384.58,1150.11c-7.59,0-11.9-6-11.9-12.53s4.24-12.53,11.86-12.53,11.86,5.9,11.86,12.53-4.27,12.53-11.83,12.53ZM1384.54,1127.97c-5.61,0-8.15,4.73-8.15,9.46s2.61,9.71,8.19,9.71,8.15-4.84,8.15-9.71-2.61-9.46-8.19-9.46Z"/>
      <path class="cls-1" d="M1413.25,1149.47v-23.79h3.53v20.79h13.56v3h-17.09Z"/>
      <path class="cls-1" d="M1450.67,1128.68v20.79h-3.53v-20.79h-8.61v-3h20.72v3h-8.58Z"/>
      <path class="cls-1" d="M1487.57,1149.47l-2.19-5.58h-11.01l-2.15,5.58h-3.78l9.85-24.18h3.25l9.85,24.18h-3.81ZM1479.87,1129.7l-4.45,11.4h8.9l-4.45-11.4Z"/>
      <path class="cls-1" d="M1507.2,1149.47v-23.79h3.53v23.79h-3.53Z"/>
      <path class="cls-1" d="M1540.6,1150.11c-7.41,0-13.1-4.91-13.1-12.71s5.54-12.36,12.96-12.36c2.01,0,4.1.25,5.97.74l-.35,3.14c-1.59-.49-3.25-.74-5.08-.74-6.14,0-9.78,3.42-9.78,9.18s4.06,9.64,9.92,9.64c1.55,0,3.32-.25,4.8-.85l.28,3.11c-1.84.64-3.78.85-5.61.85Z"/>
      <path class="cls-1" d="M1579.94,1149.47l-2.19-5.58h-11.01l-2.15,5.58h-3.78l9.85-24.18h3.25l9.85,24.18h-3.81ZM1572.24,1129.7l-4.45,11.4h8.9l-4.45-11.4Z"/>
    </g>
    <g>
      <path class="cls-1" d="M909.11,1074.08h-14.9l-103.56-165.31h21.38l89.62,145.6,89.86-145.6h20.9l-103.32,165.31Z"/>
      <path class="cls-1" d="M1059.52,1070.72v-161.94h170.35v15.14h-153.05v48.53h153.05v14.9h-153.05v68.24h153.05v15.14h-170.35Z"/>
      <path class="cls-1" d="M1391.34,1074.08h-14.9l-103.56-165.31h21.38l89.62,145.6,89.86-145.6h20.9l-103.32,165.31Z"/>
      <path class="cls-1" d="M1619.12,1075.04c-54.78,0-104.76-25.47-104.76-85.3s49.74-85.3,104.76-85.3,104.76,25.71,104.76,85.3-49.74,85.3-104.76,85.3ZM1619.12,918.87c-48.05,0-86.26,22.83-86.26,70.88s38.2,70.88,86.26,70.88c47.81.24,86.26-22.34,86.26-70.88s-38.44-70.88-86.26-70.88Z"/>
    </g>
  </g>
</svg>