<svg width="64" height="80" viewBox="0 0 64 80" fill="none" xmlns="http://www.w3.org/2000/svg">
<path d="M32 59.3C37.2667 59.3 41.8 57.4 45.6 53.6C49.4 49.8 51.3 45.2667 51.3 40C51.3 34.7333 49.4 30.2 45.6 26.4C41.8 22.6 37.2667 20.7 32 20.7C26.7333 20.7 22.2 22.6 18.4 26.4C14.6 30.2 12.7 34.7333 12.7 40C12.7 45.2667 14.6 49.8 18.4 53.6C22.2 57.4 26.7333 59.3 32 59.3ZM39.4 50.1L29.5 41V27.4H33.7V39.8L42.1 47.4L39.4 50.1ZM32 80C22.6667 77.6667 15 72.25 9 63.75C3 55.25 0 45.9333 0 35.8V12L32 0L64 12V35.8C64 45.9333 61 55.25 55 63.75C49 72.25 41.3333 77.6667 32 80ZM32 73.8C39.6667 71.2667 45.9167 66.4833 50.75 59.45C55.5833 52.4167 58 44.5333 58 35.8V16.2L32 6.4L6 16.2V35.8C6 44.5333 8.41667 52.4167 13.25 59.45C18.0833 66.4833 24.3333 71.2667 32 73.8Z" fill="#616D38"/>
</svg>
